<svg xmlns="http://www.w3.org/2000/svg" width="1120" height="660" viewBox="0 0 1120 660" role="img" aria-labelledby="title desc">
  <title id="title">Cosmic UI AI and dashboard preview</title>
  <desc id="desc">Preview of AI chat and dashboard components.</desc>
  <rect width="1120" height="660" fill="#fffaf5"/>
  <rect x="52" y="44" width="1016" height="572" rx="28" fill="#f8f3ee" stroke="#e7d7ca"/>
  <text x="96" y="112" font-family="Arial, Helvetica, sans-serif" font-size="46" font-weight="900" fill="#2a2622">AI interface and dashboard blocks</text>
  <text x="98" y="150" font-family="Arial, Helvetica, sans-serif" font-size="18" fill="#6d625a">Chat, analytics, activity feeds, KPI cards, and admin surfaces.</text>
  <rect x="94" y="204" width="430" height="342" rx="24" fill="#ffffff" stroke="#e7d7ca"/>
  <text x="124" y="252" font-family="Arial, Helvetica, sans-serif" font-size="24" font-weight="900" fill="#2a2622">AI Chat Interface</text>
  <rect x="124" y="288" width="250" height="48" rx="18" fill="#f1f5f9"/>
  <text x="146" y="318" font-family="Arial, Helvetica, sans-serif" font-size="15" fill="#2a2622">How can I help?</text>
  <rect x="210" y="356" width="256" height="58" rx="20" fill="#e8a06e"/>
  <text x="238" y="383" font-family="Arial, Helvetica, sans-serif" font-size="15" font-weight="800" fill="#2a2622">Build a pricing card</text>
  <text x="238" y="402" font-family="Arial, Helvetica, sans-serif" font-size="13" fill="#2a2622">with 200 AI credits.</text>
  <rect x="124" y="456" width="276" height="46" rx="12" fill="#ffffff" stroke="#d8c7bb"/>
  <text x="146" y="484" font-family="Arial, Helvetica, sans-serif" font-size="14" fill="#756a61">Ask AI...</text>
  <rect x="414" y="456" width="78" height="46" rx="12" fill="#2a2622"/>
  <text x="438" y="484" font-family="Arial, Helvetica, sans-serif" font-size="14" font-weight="900" fill="#ffffff">Send</text>
  <rect x="590" y="204" width="410" height="342" rx="24" fill="#2a2622"/>
  <text x="626" y="252" font-family="Arial, Helvetica, sans-serif" font-size="24" font-weight="900" fill="#ffffff">Analytics Dashboard</text>
  <rect x="626" y="288" width="142" height="92" rx="18" fill="#ffffff"/>
  <text x="650" y="326" font-family="Arial, Helvetica, sans-serif" font-size="13" font-weight="900" fill="#6d625a">Users</text>
  <text x="650" y="356" font-family="Arial, Helvetica, sans-serif" font-size="28" font-weight="900" fill="#2a2622">12.8k</text>
  <rect x="794" y="288" width="142" height="92" rx="18" fill="#ffffff"/>
  <text x="818" y="326" font-family="Arial, Helvetica, sans-serif" font-size="13" font-weight="900" fill="#6d625a">Revenue</text>
  <text x="818" y="356" font-family="Arial, Helvetica, sans-serif" font-size="28" font-weight="900" fill="#2a2622">Rs 99k</text>
  <rect x="626" y="414" width="310" height="82" rx="18" fill="#ffffff"/>
  <rect x="652" y="466" width="26" height="18" rx="6" fill="#e8a06e"/>
  <rect x="690" y="442" width="26" height="42" rx="6" fill="#e8a06e"/>
  <rect x="728" y="430" width="26" height="54" rx="6" fill="#e8a06e"/>
  <rect x="766" y="452" width="26" height="32" rx="6" fill="#e8a06e"/>
  <rect x="804" y="424" width="26" height="60" rx="6" fill="#e8a06e"/>
  <rect x="842" y="438" width="26" height="46" rx="6" fill="#e8a06e"/>
  <rect x="880" y="408" width="26" height="76" rx="6" fill="#e8a06e"/>
</svg>
