<svg xmlns="http://www.w3.org/2000/svg" width="1120" height="660" viewBox="0 0 1120 660" role="img" aria-labelledby="title desc">
  <title id="title">Cosmic UI component preview</title>
  <desc id="desc">Preview of card, button, input, badge, and navigation components.</desc>
  <rect width="1120" height="660" fill="#fffaf5"/>
  <rect x="40" y="36" width="1040" height="588" rx="28" fill="#f8f3ee" stroke="#e7d7ca"/>
  <rect x="72" y="68" width="976" height="70" rx="18" fill="#ffffff" stroke="#e7d7ca"/>
  <rect x="96" y="88" width="34" height="34" rx="9" fill="#2a2622"/>
  <path d="M112 97 L122 119 H102 Z" fill="#e8a06e"/>
  <text x="146" y="111" font-family="Arial, Helvetica, sans-serif" font-size="23" font-weight="800" fill="#2a2622">Cosmic UI</text>
  <text x="650" y="111" font-family="Arial, Helvetica, sans-serif" font-size="16" font-weight="700" fill="#756a61">Home</text>
  <text x="724" y="111" font-family="Arial, Helvetica, sans-serif" font-size="16" font-weight="700" fill="#756a61">Docs</text>
  <text x="790" y="111" font-family="Arial, Helvetica, sans-serif" font-size="16" font-weight="700" fill="#756a61">Pricing</text>
  <rect x="884" y="82" width="134" height="42" rx="21" fill="#e8a06e"/>
  <text x="916" y="109" font-family="Arial, Helvetica, sans-serif" font-size="15" font-weight="800" fill="#2a2622">Generate</text>
  <text x="96" y="210" font-family="Arial, Helvetica, sans-serif" font-size="58" font-weight="900" fill="#2a2622">Build interfaces faster.</text>
  <text x="99" y="250" font-family="Arial, Helvetica, sans-serif" font-size="20" fill="#6d625a">Cards, buttons, inputs, navs, and dashboards for React apps.</text>
  <rect x="96" y="296" width="156" height="50" rx="14" fill="#e8a06e"/>
  <text x="128" y="328" font-family="Arial, Helvetica, sans-serif" font-size="16" font-weight="800" fill="#2a2622">Get Started</text>
  <rect x="272" y="296" width="190" height="50" rx="14" fill="#ffffff" stroke="#d8c7bb"/>
  <text x="310" y="328" font-family="Arial, Helvetica, sans-serif" font-size="16" font-weight="800" fill="#2a2622">View Components</text>
  <rect x="650" y="190" width="300" height="354" rx="22" fill="#ffffff" stroke="#e7d7ca"/>
  <rect x="674" y="214" width="252" height="130" rx="17" fill="#2a2622"/>
  <circle cx="872" cy="254" r="42" fill="#e8a06e" opacity="0.88"/>
  <path d="M674 318 C730 280 778 356 832 318 C872 290 896 294 926 276 L926 344 L674 344 Z" fill="#e8a06e" opacity="0.42"/>
  <text x="674" y="388" font-family="Arial, Helvetica, sans-serif" font-size="26" font-weight="900" fill="#2a2622">Card Component</text>
  <text x="674" y="420" font-family="Arial, Helvetica, sans-serif" font-size="15" fill="#6d625a">Ready with default image, text,</text>
  <text x="674" y="444" font-family="Arial, Helvetica, sans-serif" font-size="15" fill="#6d625a">button, shadow, and hover state.</text>
  <rect x="674" y="478" width="116" height="42" rx="10" fill="#2a2622"/>
  <text x="701" y="505" font-family="Arial, Helvetica, sans-serif" font-size="14" font-weight="800" fill="#ffffff">Explore</text>
  <rect x="96" y="394" width="420" height="74" rx="16" fill="#ffffff" stroke="#e7d7ca"/>
  <text x="124" y="426" font-family="Arial, Helvetica, sans-serif" font-size="14" font-weight="800" fill="#6d625a">Input</text>
  <text x="124" y="450" font-family="Arial, Helvetica, sans-serif" font-size="16" fill="#2a2622">Search components...</text>
  <rect x="96" y="498" width="92" height="34" rx="17" fill="#e4f4f8"/>
  <text x="124" y="520" font-family="Arial, Helvetica, sans-serif" font-size="13" font-weight="900" fill="#2a2622">Badge</text>
  <rect x="204" y="498" width="116" height="34" rx="17" fill="#eadff8"/>
  <text x="235" y="520" font-family="Arial, Helvetica, sans-serif" font-size="13" font-weight="900" fill="#2a2622">Chip</text>
  <rect x="336" y="498" width="144" height="34" rx="17" fill="#dceedd"/>
  <text x="369" y="520" font-family="Arial, Helvetica, sans-serif" font-size="13" font-weight="900" fill="#2a2622">Success</text>
</svg>
