<svg xmlns="http://www.w3.org/2000/svg" width="1120" height="660" viewBox="0 0 1120 660" role="img" aria-labelledby="title desc">
  <title id="title">Cosmic UI pricing and product card preview</title>
  <desc id="desc">Preview of pricing card and product card components.</desc>
  <rect width="1120" height="660" fill="#fffaf5"/>
  <rect x="62" y="54" width="996" height="552" rx="30" fill="#2a2622"/>
  <text x="102" y="124" font-family="Arial, Helvetica, sans-serif" font-size="46" font-weight="900" fill="#ffffff">Pricing and product blocks</text>
  <text x="104" y="162" font-family="Arial, Helvetica, sans-serif" font-size="18" fill="#d6cbc1">Use ready-made commerce UI with props for content, price, rating, and actions.</text>
  <rect x="118" y="220" width="330" height="320" rx="24" fill="#ffffff"/>
  <rect x="146" y="248" width="130" height="34" rx="17" fill="#f7e2d4"/>
  <text x="172" y="270" font-family="Arial, Helvetica, sans-serif" font-size="13" font-weight="900" fill="#2a2622">Most Popular</text>
  <text x="146" y="326" font-family="Arial, Helvetica, sans-serif" font-size="28" font-weight="900" fill="#2a2622">Pro</text>
  <text x="146" y="372" font-family="Arial, Helvetica, sans-serif" font-size="54" font-weight="900" fill="#2a2622">Rs 99</text>
  <rect x="146" y="396" width="132" height="34" rx="10" fill="#e4f4f8"/>
  <text x="166" y="418" font-family="Arial, Helvetica, sans-serif" font-size="14" font-weight="900" fill="#2a2622">200 AI Credits</text>
  <text x="150" y="462" font-family="Arial, Helvetica, sans-serif" font-size="16" fill="#5d534c">✓ Save components</text>
  <text x="150" y="492" font-family="Arial, Helvetica, sans-serif" font-size="16" fill="#5d534c">✓ Preview and export code</text>
  <rect x="146" y="512" width="254" height="48" rx="12" fill="#e8a06e"/>
  <text x="242" y="542" font-family="Arial, Helvetica, sans-serif" font-size="15" font-weight="900" fill="#2a2622">Buy plan</text>
  <rect x="560" y="196" width="300" height="378" rx="24" fill="#111827" stroke="#3a3430"/>
  <rect x="560" y="196" width="300" height="190" rx="24" fill="#f8f3ee"/>
  <rect x="622" y="316" width="176" height="32" rx="16" fill="#2a2622"/>
  <path d="M630 316 C660 270 716 254 760 286 C780 300 794 314 804 316 Z" fill="#e8a06e"/>
  <circle cx="654" cy="350" r="20" fill="#2a2622"/>
  <circle cx="772" cy="350" r="20" fill="#2a2622"/>
  <text x="586" y="432" font-family="Arial, Helvetica, sans-serif" font-size="20" font-weight="900" fill="#ffffff">Premium Sneakers</text>
  <text x="586" y="462" font-family="Arial, Helvetica, sans-serif" font-size="14" fill="#aeb4bf">Handcrafted comfort with a modern profile.</text>
  <text x="586" y="506" font-family="Arial, Helvetica, sans-serif" font-size="18" font-weight="900" fill="#e8a06e">$129.99</text>
  <text x="586" y="532" font-family="Arial, Helvetica, sans-serif" font-size="14" fill="#e8a06e">★★★★★</text>
  <rect x="724" y="496" width="108" height="40" rx="11" fill="#e8a06e"/>
  <text x="745" y="521" font-family="Arial, Helvetica, sans-serif" font-size="13" font-weight="900" fill="#2a2622">Add to Cart</text>
</svg>
